<svg width="550" height="550" viewBox="0 0 550 550" fill="none" xmlns="http://www.w3.org/2000/svg">
<path d="M528.679 207.442L436.681 105.408C431.663 100.39 424.973 97.0444 414.937 95.3717C406.573 94.5354 241.813 95.3717 241.813 95.3717L16 455H385.664C385.664 455 520.316 241.732 527.007 232.532C532.025 224.169 536.207 214.969 528.679 207.442Z" fill="#FFD300"/>
<path d="M17.6997 453.333L242.676 95.3771C242.676 95.3771 407.436 94.5407 415.8 95.3771C425.836 96.2134 432.527 99.5588 437.545 105.413C455.944 127.158 425 170.648 413.291 189.048C440.89 189.884 512.816 190.72 529.543 206.611C537.07 214.138 532.888 223.338 527.87 231.701C522.016 240.901 386.528 447.478 386.528 447.478L17.6997 453.333Z" fill="url(#paint0_linear_16489_6009)"/>
<defs>
<linearGradient id="paint0_linear_16489_6009" x1="590.908" y1="-196.553" x2="16.5272" y2="775.599" gradientUnits="userSpaceOnUse">
<stop offset="0.1779" stop-color="#EB501E"/>
<stop offset="0.1819" stop-color="#EC541E"/>
<stop offset="0.232" stop-color="#F17719"/>
<stop offset="0.2863" stop-color="#F5920E"/>
<stop offset="0.347" stop-color="#F8A600"/>
<stop offset="0.4144" stop-color="#FBB700"/>
<stop offset="0.4917" stop-color="#FEC400"/>
<stop offset="0.5847" stop-color="#FFCD00"/>
<stop offset="0.7094" stop-color="#FFD200"/>
<stop offset="1" stop-color="#FFD300"/>
</linearGradient>
</defs>
</svg>
