<svg width="173" height="35" viewBox="0 0 173 35" fill="none" xmlns="http://www.w3.org/2000/svg">
<path d="M64.207 29.1459C64.207 30.103 63.9678 30.9804 63.6487 31.6982C63.2499 32.4161 62.6916 32.9744 61.9737 33.3732C61.2559 33.772 60.3785 33.9315 59.3417 33.9315H57.3477L59.1024 25.8757H61.0166C62.0535 25.8757 62.8511 26.115 63.4094 26.6733C63.9678 27.3114 64.207 28.109 64.207 29.1459ZM59.3417 33.1339C60.1393 33.1339 60.7773 32.9744 61.3357 32.6554C61.894 32.3363 62.3725 31.8577 62.6916 31.2197C63.0106 30.5816 63.1701 29.9435 63.1701 29.1459C63.1701 28.3483 63.0106 27.79 62.6118 27.3912C62.213 26.9924 61.6547 26.7531 60.8571 26.7531H59.8202L58.3845 33.1339H59.3417Z" fill="#173A77"/>
<path d="M68.2744 27.8701C68.9922 27.8701 69.5506 28.1094 69.9494 28.5082C70.3482 28.907 70.5874 29.4653 70.5874 30.1832C70.5874 30.901 70.4279 31.5391 70.1886 32.0974C69.9494 32.7355 69.5506 33.2141 69.072 33.5331C68.5934 33.8521 68.1149 34.0117 67.4768 34.0117C66.7589 34.0117 66.2006 33.7724 65.7221 33.3736C65.3233 32.9748 65.084 32.4165 65.084 31.6986C65.084 30.9808 65.2435 30.3427 65.4828 29.7046C65.7221 29.0665 66.1209 28.588 66.5994 28.2689C67.1578 28.0296 67.7161 27.8701 68.2744 27.8701ZM69.6303 30.0236C69.6303 29.6248 69.5506 29.226 69.3113 28.9868C69.072 28.7475 68.753 28.588 68.3542 28.588C67.9554 28.588 67.5566 28.7475 67.2375 28.9868C66.9185 29.226 66.6792 29.6248 66.4399 30.1034C66.2804 30.582 66.2006 31.1403 66.2006 31.6986C66.2006 32.1772 66.2804 32.576 66.5994 32.8152C66.8387 33.0545 67.1578 33.2141 67.6363 33.2141C68.0351 33.2141 68.3542 33.0545 68.6732 32.8152C68.9922 32.576 69.2315 32.1772 69.391 31.6986C69.4708 31.22 69.6303 30.6617 69.6303 30.0236Z" fill="#173A77"/>
<path d="M74.0178 34.0922C73.3 34.0922 72.7416 33.9327 72.2631 33.5339C71.8643 33.1351 71.625 32.5768 71.625 31.8589C71.625 31.1411 71.7845 30.4233 72.0238 29.8649C72.2631 29.2268 72.6619 28.7483 73.2202 28.4292C73.6988 28.1102 74.2571 27.9507 74.8952 27.9507C75.4535 27.9507 75.9321 28.0304 76.4106 28.19L76.1713 28.9876C75.6928 28.828 75.294 28.6685 74.8952 28.6685C74.4964 28.6685 74.0976 28.828 73.6988 29.0673C73.3797 29.3864 73.0607 29.7054 72.9012 30.2637C72.7416 30.7423 72.5821 31.3006 72.5821 31.8589C72.5821 32.3375 72.7416 32.6565 72.9809 32.9756C73.2202 33.2149 73.619 33.3744 74.0178 33.3744C74.2571 33.3744 74.5761 33.3744 74.8154 33.2946C75.0547 33.2149 75.294 33.1351 75.5332 33.0553V33.8529C75.1344 33.9327 74.5761 34.0922 74.0178 34.0922Z" fill="#173A77"/>
<path d="M78.9627 27.9508L78.0854 31.7793C78.0056 32.0983 78.0056 32.3376 78.0056 32.5769C78.0056 33.1352 78.3246 33.3745 78.883 33.3745C79.202 33.3745 79.5211 33.2947 79.8401 33.0554C80.1591 32.8162 80.4782 32.4971 80.7175 32.0983C80.9567 31.6995 81.1163 31.221 81.2758 30.5829L81.8341 27.9508H82.7912L81.5151 33.9328H80.7175L80.877 32.8162H80.7972C80.3984 33.2947 80.0794 33.6138 79.7603 33.7733C79.4413 33.9328 79.0425 34.0126 78.7234 34.0126C78.2449 34.0126 77.8461 33.853 77.6068 33.6138C77.3675 33.3745 77.208 32.9757 77.208 32.4971C77.208 32.2578 77.2878 31.9388 77.3675 31.54L78.1651 27.7913H78.9627V27.9508Z" fill="#173A77"/>
<path d="M87.0987 33.9327L87.976 30.1042C88.0558 29.7852 88.0558 29.5459 88.0558 29.3864C88.0558 29.1471 87.976 28.9078 87.8963 28.7483C87.7367 28.5888 87.5772 28.509 87.2582 28.509C86.9391 28.509 86.6201 28.5888 86.3011 28.8281C85.982 29.0673 85.7427 29.3864 85.5035 29.7852C85.2642 30.184 85.1047 30.6626 84.9451 31.3006L84.3868 33.9327H83.4297L84.7856 27.9507H85.5832L85.4237 29.0674H85.5035C85.8225 28.6685 86.1415 28.3495 86.4606 28.1102C86.7796 27.9507 87.0987 27.7912 87.4975 27.7912C87.8963 27.7912 88.2951 27.8709 88.4546 28.1102C88.6939 28.3495 88.8534 28.6685 88.8534 29.0674H88.9331C89.2522 28.5888 89.5712 28.2697 89.97 28.0305C90.3688 27.7912 90.6879 27.7114 91.0867 27.7114C91.5652 27.7114 91.964 27.8709 92.2033 28.1102C92.4426 28.3495 92.6021 28.7483 92.6021 29.2269C92.6021 29.4661 92.5224 29.7852 92.4426 30.184L91.645 33.853H90.6879L91.5652 30.0245C91.645 29.6257 91.645 29.3864 91.645 29.2269C91.645 28.9876 91.5652 28.8281 91.4057 28.6685C91.2462 28.509 91.0867 28.4293 90.7676 28.4293C90.4486 28.4293 90.1295 28.509 89.8903 28.7483C89.5712 28.9876 89.3319 29.2269 89.0927 29.6257C88.8534 30.0245 88.6939 30.503 88.6141 30.9816L87.976 33.6934H87.0987V33.9327Z" fill="#173A77"/>
<path d="M96.1111 34.0923C95.3933 34.0923 94.835 33.853 94.4362 33.4542C94.0374 33.0554 93.7981 32.4971 93.7981 31.7793C93.7981 31.0614 93.9576 30.4233 94.1969 29.7853C94.4362 29.1472 94.835 28.6686 95.3135 28.3496C95.7921 28.0305 96.2707 27.7913 96.829 27.7913C97.3873 27.7913 97.8659 27.9508 98.1051 28.1901C98.4242 28.4293 98.504 28.7484 98.504 29.2269C98.504 29.865 98.1849 30.4233 97.5468 30.7424C96.9087 31.1412 96.0314 31.3007 94.835 31.3007H94.6755V31.6995C94.6755 32.1781 94.7552 32.5769 94.9945 32.8162C95.2338 33.0554 95.5528 33.215 96.1111 33.215C96.3504 33.215 96.5897 33.215 96.829 33.1352C97.0683 33.0554 97.3873 32.9757 97.7861 32.7364V33.534C97.4671 33.6935 97.148 33.7733 96.829 33.853C96.7492 34.0126 96.4302 34.0923 96.1111 34.0923ZM96.9087 28.5889C96.5099 28.5889 96.1909 28.7484 95.7921 29.0674C95.4731 29.3865 95.154 29.865 94.9945 30.5031H95.0743C95.9516 30.5031 96.5897 30.4233 97.0683 30.1841C97.5468 29.9448 97.7861 29.6257 97.7861 29.2269C97.7861 29.0674 97.7064 28.9079 97.5468 28.7484C97.3873 28.6686 97.148 28.5889 96.9087 28.5889Z" fill="#173A77"/>
<path d="M103.21 33.9319L104.088 30.1034C104.167 29.7046 104.167 29.4653 104.167 29.3058C104.167 29.0665 104.088 28.907 103.928 28.7475C103.769 28.588 103.609 28.5082 103.29 28.5082C102.971 28.5082 102.652 28.588 102.333 28.8272C102.014 29.0665 101.695 29.3856 101.456 29.7844C101.216 30.1832 101.057 30.6617 100.897 31.2998L100.339 33.9319H99.3818L100.738 27.9499H101.535L101.376 29.0665H101.456C101.854 28.588 102.173 28.2689 102.492 28.1094C102.812 27.9499 103.21 27.8701 103.529 27.8701C104.008 27.8701 104.407 28.0296 104.646 28.2689C104.885 28.5082 105.045 28.907 105.045 29.3058C105.045 29.6248 104.965 29.9439 104.885 30.2629L104.088 33.9319H103.21Z" fill="#173A77"/>
<path d="M107.995 33.2937C108.235 33.2937 108.474 33.2139 108.793 33.1342V33.852C108.633 33.9318 108.474 33.9318 108.314 34.0115C108.155 34.0115 107.995 34.0913 107.836 34.0913C107.357 34.0913 107.038 34.0115 106.719 33.7722C106.48 33.533 106.32 33.2139 106.32 32.8151C106.32 32.5758 106.32 32.3366 106.4 32.0175L107.118 28.7473H106.161L106.241 28.3485L107.278 27.9497L107.995 26.6736H108.554L108.235 28.0295H109.83L109.67 28.7473H108.155L107.437 32.0973C107.357 32.4163 107.357 32.6556 107.357 32.8151C107.357 33.0544 107.437 33.2139 107.517 33.2937C107.676 33.2937 107.836 33.2937 107.995 33.2937Z" fill="#173A77"/>
<path d="M113.18 27.7913C113.499 27.7913 113.818 27.871 114.137 28.0305C114.376 28.1901 114.615 28.5091 114.775 28.8281H114.855L115.254 27.871H115.971L114.615 33.853H113.898L114.057 32.7364H113.977C113.339 33.534 112.542 34.0126 111.824 34.0126C111.265 34.0126 110.867 33.853 110.548 33.4542C110.229 33.0554 110.069 32.5769 110.069 31.9388C110.069 31.1412 110.229 30.5031 110.468 29.7853C110.707 29.1472 111.106 28.5889 111.585 28.2698C112.063 28.0305 112.621 27.7913 113.18 27.7913ZM112.143 33.2947C112.542 33.2947 112.861 33.1352 113.26 32.8162C113.658 32.4971 113.898 32.0186 114.137 31.4602C114.376 30.9019 114.456 30.3436 114.456 29.865C114.456 29.4662 114.376 29.1472 114.137 28.9877C113.898 28.7484 113.658 28.6686 113.339 28.6686C112.94 28.6686 112.542 28.8281 112.223 29.1472C111.904 29.4662 111.585 29.865 111.425 30.4233C111.265 30.9817 111.106 31.54 111.106 32.0983C111.106 32.4971 111.186 32.8162 111.345 33.0554C111.505 33.215 111.744 33.2947 112.143 33.2947Z" fill="#173A77"/>
<path d="M118.364 33.2939C118.603 33.2939 118.842 33.2142 119.161 33.1344V33.8522C119.002 33.932 118.842 33.932 118.683 34.0118C118.523 34.0118 118.364 34.0915 118.204 34.0915C117.726 34.0915 117.407 34.0118 117.088 33.7725C116.848 33.5332 116.689 33.2142 116.689 32.8154C116.689 32.5761 116.689 32.3368 116.769 32.0178L117.486 28.7476H116.529L116.609 28.3488L117.646 27.95L118.364 26.6738H118.922L118.603 28.0297H120.198L120.039 28.7476H118.523L117.805 32.0975C117.726 32.4166 117.726 32.6558 117.726 32.8154C117.726 33.0546 117.805 33.2142 117.885 33.2939C118.045 33.2939 118.204 33.2939 118.364 33.2939Z" fill="#173A77"/>
<path d="M121.236 33.9324H120.279L121.634 27.9504H122.592L121.236 33.9324ZM121.874 26.435C121.874 26.1957 121.954 26.0362 122.033 25.9564C122.193 25.7969 122.352 25.7969 122.512 25.7969C122.831 25.7969 122.99 25.9564 122.99 26.2754C122.99 26.435 122.911 26.6742 122.831 26.754C122.671 26.9135 122.592 26.9933 122.352 26.9933C122.193 26.9933 122.113 26.9135 121.954 26.8338C121.874 26.6742 121.874 26.5945 121.874 26.435Z" fill="#173A77"/>
<path d="M126.579 27.8701C127.297 27.8701 127.856 28.1094 128.254 28.5082C128.653 28.907 128.892 29.4653 128.892 30.1832C128.892 30.901 128.733 31.5391 128.494 32.0974C128.254 32.7355 127.856 33.2141 127.377 33.5331C126.898 33.8521 126.42 34.0117 125.782 34.0117C125.064 34.0117 124.506 33.7724 124.107 33.3736C123.708 32.9748 123.469 32.4165 123.469 31.6986C123.469 30.9808 123.628 30.3427 123.868 29.7046C124.187 29.0665 124.506 28.588 124.984 28.2689C125.463 28.0296 125.941 27.8701 126.579 27.8701ZM127.856 30.0236C127.856 29.6248 127.776 29.226 127.537 28.9868C127.297 28.7475 126.978 28.588 126.579 28.588C126.181 28.588 125.782 28.7475 125.463 28.9868C125.144 29.226 124.904 29.6248 124.665 30.1034C124.506 30.582 124.426 31.1403 124.426 31.6986C124.426 32.1772 124.585 32.576 124.825 32.8152C125.064 33.0545 125.383 33.2141 125.862 33.2141C126.26 33.2141 126.579 33.0545 126.898 32.8152C127.217 32.576 127.457 32.1772 127.616 31.6986C127.776 31.22 127.856 30.6617 127.856 30.0236Z" fill="#173A77"/>
<path d="M133.598 33.9319L134.475 30.1034C134.555 29.7046 134.555 29.4653 134.555 29.3058C134.555 29.0665 134.475 28.907 134.316 28.7475C134.156 28.588 133.997 28.5082 133.678 28.5082C133.359 28.5082 133.04 28.588 132.721 28.8272C132.402 29.0665 132.083 29.3856 131.843 29.7844C131.604 30.1832 131.445 30.6617 131.285 31.2998L130.727 33.9319H129.77L131.125 27.9499H131.923L131.764 29.0665H131.843C132.242 28.588 132.561 28.2689 132.88 28.1094C133.199 27.9499 133.598 27.8701 133.917 27.8701C134.396 27.8701 134.794 28.0296 135.034 28.2689C135.273 28.5082 135.433 28.907 135.433 29.3058C135.433 29.6248 135.353 29.9439 135.273 30.2629L134.475 33.9319H133.598Z" fill="#173A77"/>
<path d="M144.526 26.6749C143.888 26.6749 143.25 26.8344 142.771 27.2332C142.213 27.5522 141.814 28.1106 141.495 28.8284C141.176 29.5462 141.016 30.2641 141.016 31.0617C141.016 31.7795 141.176 32.2581 141.575 32.7367C141.973 33.1355 142.452 33.3747 143.09 33.3747C143.648 33.3747 144.207 33.295 144.925 33.0557V33.8533C144.606 33.9331 144.287 34.0926 143.968 34.0926C143.648 34.1723 143.329 34.1723 142.931 34.1723C141.973 34.1723 141.256 33.9331 140.777 33.3747C140.219 32.8164 139.979 32.0986 139.979 31.1414C139.979 30.1843 140.219 29.307 140.618 28.5094C141.016 27.7118 141.575 27.0737 142.213 26.5951C142.851 26.1963 143.648 25.957 144.526 25.957C145.244 25.957 145.962 26.1166 146.52 26.3558L146.121 27.1534C145.642 26.7546 145.084 26.6749 144.526 26.6749Z" fill="#173A77"/>
<path d="M148.833 34.0923C148.115 34.0923 147.556 33.853 147.158 33.4542C146.759 33.0554 146.52 32.4971 146.52 31.7793C146.52 31.0614 146.679 30.4233 146.918 29.7853C147.237 29.1472 147.556 28.6686 148.035 28.3496C148.514 28.0305 148.992 27.7913 149.55 27.7913C150.109 27.7913 150.587 27.9508 150.906 28.1901C151.225 28.4293 151.305 28.7484 151.305 29.2269C151.305 29.865 150.986 30.4233 150.348 30.7424C149.71 31.1412 148.833 31.3007 147.636 31.3007H147.556V31.6995C147.556 32.1781 147.636 32.5769 147.875 32.8162C148.115 33.0554 148.434 33.215 148.992 33.215C149.231 33.215 149.471 33.215 149.71 33.1352C149.949 33.0554 150.268 32.9757 150.667 32.7364V33.534C150.268 33.6935 150.029 33.7733 149.71 33.853C149.471 34.0126 149.152 34.0923 148.833 34.0923ZM149.63 28.5889C149.231 28.5889 148.833 28.7484 148.514 29.0674C148.194 29.3865 147.875 29.865 147.716 30.5031H147.796C148.673 30.5031 149.311 30.4233 149.79 30.1841C150.268 29.9448 150.508 29.6257 150.508 29.2269C150.508 29.0674 150.428 28.9079 150.268 28.7484C150.109 28.6686 149.869 28.5889 149.63 28.5889Z" fill="#173A77"/>
<path d="M155.931 33.9319L156.808 30.1034C156.888 29.7046 156.888 29.4653 156.888 29.3058C156.888 29.0665 156.808 28.907 156.649 28.7475C156.489 28.588 156.33 28.5082 156.011 28.5082C155.692 28.5082 155.373 28.588 155.054 28.8272C154.735 29.0665 154.416 29.3856 154.176 29.7844C153.937 30.1832 153.778 30.6617 153.618 31.2998L153.06 33.9319H152.103L153.458 27.9499H154.256L154.097 29.0665H154.176C154.575 28.588 154.894 28.2689 155.213 28.1094C155.532 27.9499 155.931 27.8701 156.25 27.8701C156.729 27.8701 157.127 28.0296 157.367 28.2689C157.686 28.5082 157.766 28.907 157.766 29.3058C157.766 29.6248 157.686 29.9439 157.606 30.2629L156.808 33.9319H155.931Z" fill="#173A77"/>
<path d="M160.717 33.2939C160.957 33.2939 161.196 33.2142 161.515 33.1344V33.8522C161.355 33.932 161.196 33.932 161.036 34.0118C160.877 34.0118 160.717 34.0915 160.558 34.0915C160.079 34.0915 159.68 34.0118 159.441 33.7725C159.202 33.5332 159.042 33.2142 159.042 32.8154C159.042 32.5761 159.042 32.3368 159.122 32.0178L159.84 28.7476H158.883L158.963 28.3488L159.999 27.95L160.717 26.6738H161.276L161.116 27.95H162.632L162.472 28.6678H160.957L160.239 32.0178C160.159 32.3368 160.159 32.5761 160.159 32.7356C160.159 32.9749 160.239 33.1344 160.318 33.2142C160.398 33.2939 160.558 33.2939 160.717 33.2939Z" fill="#173A77"/>
<path d="M165.104 34.0923C164.386 34.0923 163.828 33.853 163.429 33.4542C163.03 33.0554 162.791 32.4971 162.791 31.7793C162.791 31.0614 162.951 30.4233 163.19 29.7853C163.509 29.1472 163.828 28.6686 164.306 28.3496C164.785 28.0305 165.264 27.7913 165.822 27.7913C166.38 27.7913 166.859 27.9508 167.098 28.1901C167.417 28.4293 167.577 28.7484 167.577 29.2269C167.577 29.865 167.258 30.4233 166.619 30.7424C165.981 31.1412 165.104 31.3007 163.908 31.3007H163.748V31.6995C163.748 32.1781 163.828 32.5769 164.067 32.8162C164.306 33.0554 164.626 33.215 165.184 33.215C165.423 33.215 165.662 33.215 165.902 33.1352C166.141 33.0554 166.46 32.9757 166.859 32.7364V33.534C166.46 33.6935 166.221 33.7733 165.902 33.853C165.662 34.0126 165.423 34.0923 165.104 34.0923ZM165.902 28.5889C165.503 28.5889 165.104 28.7484 164.785 29.0674C164.466 29.3865 164.147 29.865 163.987 30.5031H164.067C164.945 30.5031 165.583 30.4233 166.061 30.1841C166.54 29.9448 166.779 29.6257 166.779 29.2269C166.779 29.0674 166.699 28.9079 166.54 28.7484C166.38 28.6686 166.141 28.5889 165.902 28.5889Z" fill="#173A77"/>
<path d="M172.282 27.7913C172.521 27.7913 172.761 27.7913 173 27.871L172.761 28.6686C172.521 28.5889 172.362 28.5889 172.123 28.5889C171.804 28.5889 171.485 28.6686 171.166 28.9079C170.847 29.1472 170.607 29.4662 170.368 29.7853C170.129 30.1841 169.969 30.5829 169.889 31.0614L169.251 33.853H168.294L169.65 27.871H170.448L170.288 28.9877H170.368C170.607 28.6686 170.847 28.3496 171.006 28.2698C171.166 28.1103 171.405 28.0305 171.564 27.9508C171.883 27.871 172.043 27.7913 172.282 27.7913Z" fill="#173A77"/>
<path d="M64.2071 14.472L62.7714 20.8529H60.0596L63.6488 4.82104H67.4773C69.1522 4.82104 70.5082 5.14009 71.3855 5.85793C72.2629 6.57577 72.7414 7.61265 72.7414 9.04834C72.7414 10.2447 72.4224 11.2816 71.7843 12.0792C71.1462 12.8768 70.1891 13.5149 68.8332 13.9137L71.7046 20.8529H68.7534L66.3606 14.472H64.2071ZM64.7654 12.3185H66.2011C67.4773 12.3185 68.4344 12.0792 69.0725 11.5209C69.7106 10.9626 70.0296 10.2447 70.0296 9.28762C70.0296 8.49002 69.7903 7.93169 69.3915 7.61265C68.913 7.29361 68.2749 7.13409 67.3178 7.13409H65.9618L64.7654 12.3185Z" fill="#173A77"/>
<path d="M78.8028 8.72925L77.3671 15.4291C77.1279 16.466 77.0481 17.1838 77.0481 17.5826C77.0481 18.5398 77.5267 19.0183 78.4838 19.0183C79.0421 19.0183 79.6004 18.779 80.079 18.3802C80.6373 17.9814 81.1159 17.3434 81.5147 16.6255C81.9135 15.8279 82.2325 14.9505 82.4718 13.9137L83.5884 8.72925H86.2205L83.5884 20.8528H81.5147L81.754 18.6195H81.6742C81.0361 19.4969 80.398 20.0552 79.7599 20.454C79.1219 20.8528 78.3243 21.0921 77.6064 21.0921C76.5695 21.0921 75.7719 20.773 75.2136 20.2945C74.6553 19.7362 74.416 18.9386 74.416 17.9017C74.416 17.4231 74.4958 17.0243 74.5755 16.5458C74.6553 16.0672 74.7351 15.6684 74.8148 15.1898L76.2505 8.80901H78.8028V8.72925Z" fill="#173A77"/>
<path d="M95.7121 17.183C95.7121 18.4592 95.2335 19.4163 94.3562 20.1342C93.4788 20.852 92.2027 21.171 90.6074 21.171C89.1718 21.171 87.9754 20.9318 86.9385 20.4532V18.2199C88.1349 18.858 89.2515 19.177 90.5277 19.177C91.2455 19.177 91.8836 19.0175 92.2824 18.7782C92.761 18.4592 93.0003 18.0604 93.0003 17.5818C93.0003 17.183 92.8407 16.864 92.6015 16.6247C92.3622 16.3854 91.8038 15.9866 91.0062 15.5878C90.0491 15.1093 89.411 14.6307 89.0122 14.0724C88.6134 13.5938 88.4539 12.9557 88.4539 12.2379C88.4539 11.1212 88.8527 10.2439 89.6503 9.6058C90.4479 8.96772 91.5646 8.64868 92.9205 8.64868C94.4359 8.64868 95.7121 8.96772 96.8287 9.6058L95.9514 11.52C94.9145 10.9617 93.8776 10.7224 92.9205 10.7224C92.3622 10.7224 91.8836 10.8022 91.5646 11.1212C91.2455 11.3605 91.0062 11.6796 91.0062 12.1581C91.0062 12.4772 91.1658 12.7962 91.405 13.0355C91.6443 13.2748 92.2027 13.5938 92.9205 13.9926C93.7181 14.3914 94.2764 14.7902 94.5955 15.1093C94.9145 15.4283 95.1538 15.7473 95.3931 16.1461C95.6323 16.3057 95.7121 16.7045 95.7121 17.183Z" fill="#173A77"/>
<path d="M105.363 20.9324L106.958 13.5147C107.118 12.8766 107.197 12.398 107.197 12.1588C107.197 11.2016 106.719 10.6433 105.762 10.6433C104.884 10.6433 104.087 11.1219 103.369 11.9992C102.651 12.8766 102.093 14.1528 101.774 15.748L100.657 20.8526H97.9453L101.694 3.78394H104.406L103.688 6.73506C103.449 7.69219 103.209 8.72907 102.89 9.92547L102.651 10.7231H102.731C103.369 9.92547 104.007 9.36715 104.645 9.04811C105.283 8.72907 106.001 8.56955 106.639 8.56955C107.676 8.56955 108.474 8.88859 109.032 9.44691C109.59 10.0052 109.83 10.8028 109.83 11.9195C109.83 12.4778 109.75 13.1159 109.59 13.8337L107.995 21.0121H105.363V20.9324Z" fill="#173A77"/>
<path d="M117.966 20.9316L121.475 4.82007H124.187L120.678 20.8519H117.966V20.9316Z" fill="#173A77"/>
<path d="M132.083 20.9318L133.678 13.5141C133.838 12.876 133.917 12.3974 133.917 12.0784C133.917 11.1212 133.439 10.6427 132.482 10.6427C131.923 10.6427 131.365 10.882 130.887 11.2808C130.328 11.6796 129.85 12.3177 129.451 13.1153C129.052 13.9129 128.733 14.7902 128.494 15.8271L127.377 21.0115H124.665L127.377 8.88796H129.451L129.212 11.1212H129.291C129.929 10.2439 130.568 9.6058 131.206 9.207C131.844 8.8082 132.562 8.64868 133.359 8.64868C134.396 8.64868 135.194 8.96772 135.752 9.44628C136.31 10.0046 136.629 10.8022 136.629 11.8391C136.629 12.3177 136.55 13.0355 136.39 13.8331L134.795 21.0115H132.083V20.9318Z" fill="#173A77"/>
<path d="M48.893 10.7233L40.1194 0.992572C39.6408 0.51401 39.0028 0.194969 38.0456 0.035449C37.248 -0.0443112 21.5353 0.035449 21.5353 0.035449L0 34.3324H35.254C35.254 34.3324 48.0954 13.9935 48.7335 13.1161C49.2121 12.3185 49.6109 11.4412 48.893 10.7233Z" fill="#FFD300"/>
<path d="M0.162109 34.1733L21.6176 0.0359373C21.6176 0.0359373 37.3304 -0.043823 38.128 0.0359373C39.0851 0.115698 39.7232 0.434739 40.2018 0.99306C41.9565 3.06683 39.0053 7.21436 37.8887 8.96908C40.5208 9.04884 47.3802 9.1286 48.9754 10.644C49.6932 11.3619 49.2944 12.2393 48.8159 13.0369C48.2575 13.9142 35.3364 33.615 35.3364 33.615L0.162109 34.1733Z" fill="url(#paint0_linear_16489_5975)"/>
<defs>
<linearGradient id="paint0_linear_16489_5975" x1="54.8276" y1="-27.8047" x2="0.0502898" y2="64.9071" gradientUnits="userSpaceOnUse">
<stop offset="0.1779" stop-color="#EB501E"/>
<stop offset="0.1819" stop-color="#EC541E"/>
<stop offset="0.232" stop-color="#F17719"/>
<stop offset="0.2863" stop-color="#F5920E"/>
<stop offset="0.347" stop-color="#F8A600"/>
<stop offset="0.4144" stop-color="#FBB700"/>
<stop offset="0.4917" stop-color="#FEC400"/>
<stop offset="0.5847" stop-color="#FFCD00"/>
<stop offset="0.7094" stop-color="#FFD200"/>
<stop offset="1" stop-color="#FFD300"/>
</linearGradient>
</defs>
</svg>
